<?xml version="1.0" encoding="UTF-8"?><svg xmlns="http://www.w3.org/2000/svg" xmlns:xlink="http://www.w3.org/1999/xlink" version="1.1" id="Layer_1" x="0px" y="0px" viewBox="0 0 52 52" xml:space="preserve"><style type="text/css">.st0{fill:#FC0000;} .st1{fill:none;stroke:#000000;stroke-width:2;stroke-linecap:round;stroke-linejoin:round;stroke-miterlimit:10;}</style><path d="M32.685 9.822a13.42 13.42 0 0 0-5.223 1.059c.741-2.317 2.594-5.948 7.064-6.903a1 1 0 0 0-.418-1.957c-6.073 1.299-8.155 6.616-8.818 9.206a13.38 13.38 0 0 0-5.975-1.405c-7.47 0-13.54 6.08-13.54 13.55 0 6.64 5.47 26.63 13.54 26.63 2.35 0 4.64-.61 6.68-1.78 2.05 1.17 4.34 1.78 6.69 1.78 8.07 0 13.54-19.99 13.54-26.63 0-7.47-6.08-13.55-13.54-13.55zm-10.923 6.892c-2.76-.545-4.982-.183-6.6 1.07-2.672 2.069-2.932 5.965-2.934 6.004a1.002 1.002 0 0 1-1.055.94 1 1 0 0 1-.942-1.052c.01-.195.3-4.823 3.693-7.463 2.096-1.63 4.864-2.122 8.224-1.462a1 1 0 0 1-.386 1.963z"/><metadata><rdf:RDF xmlns:rdf="http://www.w3.org/1999/02/22-rdf-syntax-ns#" xmlns:rdfs="http://www.w3.org/2000/01/rdf-schema#" xmlns:dc="http://purl.org/dc/elements/1.1/"><rdf:Description about="https://iconscout.com/legal#licenses" dc:title="apple,fruit,eat,vitamins" dc:description="apple,fruit,eat,vitamins" dc:publisher="Iconscout" dc:date="2017-12-03" dc:format="image/svg+xml" dc:language="en"><dc:creator><rdf:Bag><rdf:li>Icon River</rdf:li></rdf:Bag></dc:creator></rdf:Description></rdf:RDF></metadata></svg>